<svg version="1.1" id="Camada_1" xmlns="http://www.w3.org/2000/svg" x="0" y="0" viewBox="0 0 1500 212.9" style="enable-background:new 0 0 1500 212.9" xml:space="preserve"><style>.st4{opacity:.957;fill-rule:evenodd;clip-rule:evenodd;fill:#FFF;enable-background:new}</style><path d="M907.4 0h59.9c-12.8 68.5-26.7 136.7-41.6 204.8-20 2.2-40 2.2-59.9 0 2-2.8 2-5.6 0-8.3-28.9 17.3-58.9 19.2-89.9 5.8-27.6-16.6-36.2-40.2-25.8-70.8 16-32.1 41.8-50.7 77.4-55.8 15.2-1.7 30.2-.6 45 3.3 6.5 2.6 12.4 6.2 17.5 10.8 6.5-29.7 12.3-59.7 17.4-89.8zm-66.6 114.9c14.5-2.1 27 1.7 37.5 11.7 5.9 17.9.1 30.9-17.5 39.1-15.3 6-30.3 5.4-45-1.7-11.6-14.6-10-27.9 5-40 6.6-3.5 13.3-6.6 20-9.1z" style="opacity:.968;fill-rule:evenodd;clip-rule:evenodd;fill:#FFF;enable-background:new"/><path d="M129.9 13.3c26.7-2.1 52.8.9 78.2 9.2 20.7 7.8 35.1 22 43.3 42.5-21 7.8-42.4 15-64 21.6-11.7-25.2-31.4-34.9-59.1-29.1-32.9 6.8-53.2 26.5-60.8 59-2.7 26.7 8.7 44.2 34.1 52.4 26.1 5.9 48.6-.5 67.4-19.1 1.4-2.8 2.8-5.5 4.2-8.3-16.6-1.1-33.3-2.2-49.9-3.3 2.7-12 5.5-23.9 8.3-35.8 41.6-.8 83.2-1.1 124.9-.8-11.9 59.9-48 95.7-108.2 107.4-27.9 5.7-55.6 5.2-83.2-1.7-52-14.7-72.8-48.3-62.5-100.7C18.3 62 49.1 33.4 95 20.8c11.8-2.9 23.4-5.4 34.9-7.5z" style="opacity:.972;fill-rule:evenodd;clip-rule:evenodd;fill:#FFF;enable-background:new"/><path d="M456.2 74.9c17.8-.6 35.6.3 53.3 2.5 36.9 9.8 51.6 33.4 44.1 70.8-40.4 2.8-81.2 4.4-122.4 5-2 11.9 3 19.4 15 22.5 10.7 1.4 21.2.9 31.6-1.7 4.8-1.5 8.6-4.3 11.7-8.3 19.4-1.4 38.9-1.1 58.3.8-9.6 17.7-24.1 29.6-43.3 35.8-23.9 7.1-48.3 9.3-73.3 6.7-54-8.6-70.6-38-49.9-88.2-18.8-6.5-36.6-4.3-53.3 6.7-3.1 2.6-5.6 5.6-7.5 9.2-6.9 22.8-12.7 45.8-17.5 69.1-19.4.8-38.8 1.1-58.3.8 7.7-42.8 16-85.6 25-128.2h59.9c-1 6.2-1.8 12.3-2.5 18.3 19.4-16.2 41.9-22.8 67.4-20-1.9 10-3.3 20-4.2 30 19-17.2 40.9-27.8 65.9-31.8zm10 30c16.1-2.4 28.3 3.1 36.6 16.6-21.6 1.9-43.3 2.2-64.9.8 7.5-9.2 17-15 28.3-17.4z" style="opacity:.958;fill-rule:evenodd;clip-rule:evenodd;fill:#FFF;enable-background:new"/><path d="M669.3 74.9c16.9-1 33.5.4 49.9 4.2C738 89.5 745 105.3 740 126.5c-5.8 26.6-11.1 53.2-15.8 79.9h-59.9c4.7-25.8 9.7-51.7 15-77.4-1.3-12.9-8.5-18.7-21.6-17.5-13.5-.3-23.8 5.2-30.8 16.6-6.8 25.9-12.6 52-17.5 78.2h-59.9c8.5-42.2 17.1-84.4 25.8-126.5 20.1-1.9 40.4-2.2 60.8-.8-1.9 4.6-2.7 9.3-2.5 14.2 10.5-9 22.5-15.1 35.7-18.3z" style="opacity:.966;fill-rule:evenodd;clip-rule:evenodd;fill:#FFF;enable-background:new"/><path class="st4" d="M1029 74.9c14.4-.3 28.9 0 43.3.8 44.2 6.6 62 31.8 53.3 75.8h-123.2c-1.4 12.8 4.2 20.8 16.6 24.1 8.9 1.1 17.8 1.1 26.6 0 6.4-2 11.9-5.3 16.6-10 18.9-.8 37.7-1.1 56.6-.8-3.2 11.1-9.9 19.7-20 25.8-29.9 17.6-62.1 23.7-96.6 18.3-55.4-10.6-71.2-41.4-47.4-92.4 19.1-24 43.8-37.9 74.2-41.6zm8.3 30c13-1.7 24.4 1.6 34.1 10 1.7 2.5 2.5 5.3 2.5 8.3-21.1.3-42.2 0-63.3-.8 6.6-9.6 15.4-15.4 26.7-17.5z"/><path d="M1240.4 74.9c15.1-.6 30.1.2 45 2.5 18.6 5.1 28.1 17.3 28.3 36.6-5.2 29.8-11 59.5-17.5 89.1-9.9 2.2-20.1 3.3-30.8 3.3-10-.6-20-1.1-30-1.7 7.6-27.9 12.4-56.2 14.2-84.9-4.8-6.2-11.2-8.9-19.1-8.3-19.8.6-31.7 10.6-35.8 30-4.5 21.6-8.7 43.3-12.5 64.9h-59.9c8.1-42.8 16.4-85.5 25-128.2h59.9c-.8 4.5-1.1 8.9-.8 13.3 10.2-8 21.5-13.5 34-16.6z" style="opacity:.965;fill-rule:evenodd;clip-rule:evenodd;fill:#FFF;enable-background:new"/><path class="st4" d="M1400.2 74.9c23.3-1.8 46 .7 68.3 7.5 27.7 15.2 37.2 38.2 28.3 69.1h-123.2c-1.3 12.8 4.2 20.9 16.6 24.1 8.9 1.1 17.8 1.1 26.6 0 6.4-2 11.9-5.3 16.6-10 19.4-1.4 38.9-1.1 58.3.8-14.2 22.7-34.8 36.3-61.6 40.8-27.6 4.6-54.8 3-81.6-5-26.2-11.1-37.1-30.8-32.5-59.1 8.4-32.2 28.6-53.1 60.8-62.4 8.1-2 15.9-3.9 23.4-5.8zm8.3 30c10.6-1.2 20.6.8 30 5.8 3.6 3.3 6.4 7.2 8.3 11.7-21.6 1.1-43.3 1.1-64.9 0 7-8.8 15.9-14.6 26.6-17.5z"/></svg>