<svg xmlns="http://www.w3.org/2000/svg" viewBox="0 0 64 64"><path fill="#546e7a" d="M33.572 41.793H22.4a1 1 0 0 1 0-2h11.172a1 1 0 0 1 0 2Z"/><path fill="#546e7a" d="M48.772 50.023h-12.2a4 4 0 0 1-4-4v-24.08a4 4 0 0 1 4-4h3.408a1 1 0 0 1 0 2h-3.408a2 2 0 0 0-2 2v24.08a2 2 0 0 0 2 2h12.2a1 1 0 0 1 0 2zm9.09-19.18a1 1 0 0 1-1-1v-7.9a2 2 0 0 0-2-2h-11.17a1 1 0 0 1 0-2h11.17a4 4 0 0 1 4 4v7.9a1 1 0 0 1-1 1z"/><path fill="#546e7a" d="M58.56 52.75h-7.24a3.5 3.5 0 0 1-.758-.082 1 1 0 0 1 .428-1.953 1.587 1.587 0 0 0 .33.035h7.24a1.551 1.551 0 0 0 1.55-1.55V32.39a1.547 1.547 0 0 0-1.55-1.54h-7.24a1.547 1.547 0 0 0-1.55 1.54v16.63a1 1 0 0 1-2 0V32.39a3.549 3.549 0 0 1 3.55-3.54h7.24a3.549 3.549 0 0 1 3.55 3.54V49.2a3.553 3.553 0 0 1-3.55 3.55zm-13.84-5.59a1.033 1.033 0 0 1-.71-.29 1.03 1.03 0 0 1-.22-1.09.955.955 0 0 1 .22-.33 1.034 1.034 0 0 1 1.41 0 .834.834 0 0 1 .22.33 1 1 0 0 1-.92 1.38zm-21.43-8.49a.986.986 0 0 1-.38-.07 1 1 0 0 1-.62-.92 1.046 1.046 0 0 1 .08-.39.988.988 0 0 1 .21-.32 1.19 1.19 0 0 1 .33-.22 1.021 1.021 0 0 1 1.09.22 1.212 1.212 0 0 1 .22.32 1.036 1.036 0 0 1 .07.39.967.967 0 0 1-.29.7.99.99 0 0 1-.71.29z"/><path fill="#546e7a" d="M54.938 32.032a1 1 0 0 1-1-1v-1.186a1 1 0 0 1 2 0v1.186a1 1 0 0 1-1 1zm-36.085 9.761H4.893a3 3 0 0 1-3-3v-24.54a3 3 0 0 1 3-3h36.8a3 3 0 0 1 3 3v4.69a1 1 0 1 1-2 0v-4.69a1 1 0 0 0-1-1h-36.8a1 1 0 0 0-1 1v24.54a1 1 0 0 0 1 1h13.96a1 1 0 0 1 0 2z"/><path fill="#546e7a" d="M17.132 49.18a1 1 0 0 1-.842-1.537c1.434-2.254 1.562-6.825 1.564-6.871a1.039 1.039 0 0 1 1.023-.975 1 1 0 0 1 .976 1.023c-.005.21-.142 5.172-1.876 7.9a1 1 0 0 1-.845.46zm12.321 0a1 1 0 0 1-.845-.463c-1.734-2.725-1.871-7.687-1.876-7.9a1 1 0 0 1 .976-1.023h.024a1 1 0 0 1 1 .976c0 .046.13 4.617 1.564 6.871a1 1 0 0 1-.842 1.537z"/><path fill="#546e7a" d="M31.121 49.18H15.464a1 1 0 1 1 0-2h15.657a1 1 0 1 1 0 2Z"/></svg>