<svg id="svg" version="1.1" xmlns="http://www.w3.org/2000/svg" xmlns:xlink="http://www.w3.org/1999/xlink" width="400" height="400" viewBox="0, 0, 400,400"><g id="svgg"><path id="path0" d="M30.657 1.558 C 24.636 5.230,25.006 0.762,25.003 69.727 L 25.000 131.250 14.210 131.250 C -0.314 131.250,-0.000 130.962,0.000 144.274 C 0.000 162.647,-0.326 162.500,40.534 162.500 C 69.369 162.500,71.175 162.582,70.802 163.867 C 67.069 176.737,69.072 185.156,75.868 185.156 C 79.964 185.156,84.512 170.647,82.451 164.153 L 81.932 162.520 168.253 162.315 C 254.057 162.111,254.586 162.100,256.731 160.499 C 261.549 156.901,262.088 155.400,262.370 144.792 C 262.734 131.126,262.863 131.250,248.301 131.250 L 237.500 131.250 237.500 107.460 L 237.500 83.670 240.820 85.177 C 247.275 88.107,252.344 86.138,252.344 80.700 C 252.344 77.224,250.383 75.417,243.555 72.596 L 237.500 70.096 237.500 39.528 C 237.500 5.447,237.507 5.495,232.032 1.758 L 229.456 0.000 131.330 0.003 C 34.793 0.006,33.162 0.031,30.657 1.558 M225.000 18.750 L 225.000 25.000 201.684 25.000 C 175.446 25.000,175.469 24.995,175.469 30.916 C 175.469 36.969,175.922 37.079,201.974 37.338 L 225.000 37.567 225.000 84.408 L 225.000 131.250 131.250 131.250 L 37.500 131.250 37.500 84.375 L 37.500 37.500 95.262 37.500 C 133.335 37.500,153.751 37.223,155.159 36.688 C 159.520 35.030,160.775 30.106,157.676 26.808 L 155.978 25.000 96.739 25.000 L 37.500 25.000 37.500 18.750 L 37.500 12.500 131.250 12.500 L 225.000 12.500 225.000 18.750 M265.085 88.296 C 257.930 91.148,262.828 101.840,273.972 107.697 C 278.176 109.906,282.813 106.957,282.813 102.073 C 282.813 96.699,269.655 86.474,265.085 88.296 M288.281 117.188 C 284.031 121.438,292.590 138.281,299.000 138.281 C 307.359 138.281,306.381 127.565,297.057 116.992 C 295.358 115.066,290.290 115.178,288.281 117.188 M250.000 146.875 L 250.000 150.000 131.250 150.000 L 12.500 150.000 12.500 146.875 L 12.500 143.750 131.250 143.750 L 250.000 143.750 250.000 146.875 M304.261 151.136 C 299.232 156.166,304.792 173.750,311.411 173.750 C 317.712 173.750,318.776 165.176,313.983 153.031 C 312.429 149.093,307.304 148.094,304.261 151.136 M194.922 182.353 C 192.049 183.630,189.442 186.381,188.333 189.309 C 187.772 190.790,187.500 209.227,187.500 245.754 L 187.500 300.000 185.121 300.000 C 177.433 300.000,176.800 310.989,184.418 312.207 L 187.500 312.700 187.500 326.789 C 187.500 351.203,185.175 350.000,232.345 350.000 C 251.938 350.000,267.969 350.233,267.969 350.517 C 267.969 351.401,264.094 382.286,263.661 384.853 C 263.269 387.174,263.048 387.305,258.774 387.743 C 251.677 388.471,248.699 393.236,252.400 397.942 L 254.020 400.000 294.197 400.000 C 339.133 400.000,337.500 400.208,337.500 394.480 C 337.500 389.668,334.473 387.500,327.752 387.500 L 324.487 387.500 322.162 368.750 L 319.838 350.000 355.818 349.997 C 396.038 349.994,394.905 350.144,398.442 344.343 C 399.963 341.848,399.994 340.257,399.994 265.625 C 399.994 179.566,400.494 186.253,393.812 182.844 C 389.821 180.808,199.455 180.338,194.922 182.353 M387.500 200.000 L 387.500 206.250 293.750 206.250 L 200.000 206.250 200.000 200.000 L 200.000 193.750 293.750 193.750 L 387.500 193.750 387.500 200.000 M71.365 199.658 C 69.405 201.618,69.171 207.054,70.858 211.451 C 71.188 212.311,67.954 212.500,52.941 212.500 C 32.166 212.500,29.463 213.138,26.449 218.757 C 24.110 223.119,24.213 352.996,26.558 356.843 C 30.137 362.712,28.280 362.494,74.689 362.497 L 116.175 362.500 118.758 360.742 C 124.860 356.589,124.583 358.308,124.830 323.038 L 125.051 291.501 127.487 291.259 C 133.749 290.634,134.266 283.628,128.369 279.311 L 125.148 276.953 124.879 248.766 L 124.609 220.579 122.358 217.628 C 118.756 212.909,116.925 212.500,99.369 212.500 L 83.844 212.500 82.844 206.902 C 81.265 198.068,76.170 194.853,71.365 199.658 M387.500 265.625 L 387.500 312.500 293.750 312.500 L 200.000 312.500 200.000 265.625 L 200.000 218.750 293.750 218.750 L 387.500 218.750 387.500 265.625 M112.500 228.125 L 112.500 231.250 75.000 231.250 L 37.500 231.250 37.500 228.125 L 37.500 225.000 75.000 225.000 L 112.500 225.000 112.500 228.125 M112.500 284.375 L 112.500 325.000 75.000 325.000 L 37.500 325.000 37.500 284.375 L 37.500 243.750 75.000 243.750 L 112.500 243.750 112.500 284.375 M144.105 293.324 C 139.505 297.924,142.575 302.438,152.505 305.672 C 162.404 308.896,166.406 307.779,166.406 301.794 C 166.406 295.395,148.743 288.686,144.105 293.324 M387.500 331.250 L 387.500 337.500 293.750 337.500 L 200.000 337.500 200.000 331.250 L 200.000 325.000 293.750 325.000 L 387.500 325.000 387.500 331.250 M112.500 343.750 L 112.500 350.000 75.000 350.000 L 37.500 350.000 37.500 343.750 L 37.500 337.500 75.000 337.500 L 112.500 337.500 112.500 343.750 M307.391 352.539 C 307.836 355.165,311.719 386.067,311.719 386.983 C 311.719 387.267,303.702 387.500,293.903 387.500 L 276.088 387.500 278.412 368.750 L 280.737 350.000 293.849 350.000 L 306.960 350.000 307.391 352.539 " stroke="none" fill="#FFF" fill-rule="evenodd"></path></g></svg>